<svg xmlns="http://www.w3.org/2000/svg" viewBox="0 0 24.39 36.01"><defs><style>.cls-1{fill:#272525;}</style></defs><g id="Layer_2" data-name="Layer 2"><g id="Layer_1-2" data-name="Layer 1"><path class="cls-1" d="M21.34,0H3.06A3.06,3.06,0,0,0,0,3.06V33A3.06,3.06,0,0,0,3.06,36H21.34A3.06,3.06,0,0,0,24.39,33V3.06A3.06,3.06,0,0,0,21.34,0Zm1.75,33a1.75,1.75,0,0,1-1.75,1.75H3.06A1.75,1.75,0,0,1,1.3,33V3.06A1.76,1.76,0,0,1,3.06,1.3H21.34a1.75,1.75,0,0,1,1.75,1.76Z"/><path class="cls-1" d="M12.2,2.13a.34.34,0,0,0,0-.67.34.34,0,1,0,0,.67Z"/><path class="cls-1" d="M10.94,3.49h2.52a.34.34,0,0,0,0-.67H10.94a.34.34,0,1,0,0,.67Z"/><path class="cls-1" d="M9.81,3.42a.27.27,0,1,0-.26-.26A.26.26,0,0,0,9.81,3.42Z"/><path class="cls-1" d="M12.2,30.44a2,2,0,1,0,2,2A2,2,0,0,0,12.2,30.44Zm0,3.36a1.36,1.36,0,1,1,1.36-1.35A1.35,1.35,0,0,1,12.2,33.8Z"/><path class="cls-1" d="M20.77,4.25H3.62a.32.32,0,0,0-.32.33V30a.32.32,0,0,0,.32.32H20.77A.32.32,0,0,0,21.1,30V4.58A.33.33,0,0,0,20.77,4.25Zm-.32,25.41H4V4.9h16.5Z"/></g></g></svg>