<svg xmlns="http://www.w3.org/2000/svg" viewBox="0 0 28.46 24.39"><defs><style>.cls-1{fill:#272525;}</style></defs><g id="Layer_2" data-name="Layer 2"><g id="Layer_1-2" data-name="Layer 1"><path class="cls-1" d="M.88,24.39h26.7a.87.87,0,0,0,.88-.88V4.69a.88.88,0,0,0-.88-.89H20.42V.88A.89.89,0,0,0,19.54,0H12.23a.89.89,0,0,0-.89.88V3.8H8.13V3.46a.88.88,0,0,0-.88-.88H4.77a.88.88,0,0,0-.88.88V3.8h-3A.89.89,0,0,0,0,4.69V23.51A.88.88,0,0,0,.88,24.39ZM13.11,1.77h5.54v2H13.11ZM1.77,5.57H26.7V22.62H1.77Z"/><path class="cls-1" d="M18.16,7.35A6.82,6.82,0,1,0,25,14.17,6.83,6.83,0,0,0,18.16,7.35Zm0,11.87a5.05,5.05,0,1,1,5.05-5A5.06,5.06,0,0,1,18.16,19.22Z"/><path class="cls-1" d="M18.16,10.53a3.64,3.64,0,1,0,3.64,3.64A3.65,3.65,0,0,0,18.16,10.53Zm0,5.51A1.87,1.87,0,1,1,20,14.17,1.87,1.87,0,0,1,18.16,16Z"/><path class="cls-1" d="M8.66,6.48H3.71a.87.87,0,0,0-.88.88v3a.87.87,0,0,0,.88.88h5a.88.88,0,0,0,.89-.88v-3A.88.88,0,0,0,8.66,6.48Zm-.88,3H4.59V8.25H7.78Z"/></g></g></svg>