<svg xmlns="http://www.w3.org/2000/svg" viewBox="0 0 111.05 110"><defs><style>.cls-1{fill:#3a4145;}</style></defs><g id="Layer_2" data-name="Layer 2"><g id="Layer_4" data-name="Layer 4"><path class="cls-1" d="M72.16,95.12H38.88A14.88,14.88,0,0,0,24,110H87A14.88,14.88,0,0,0,72.16,95.12Z"/><rect class="cls-1" x="45.83" y="80.7" width="19.39" height="11.27"/><path class="cls-1" d="M108.24,0H2.81A2.81,2.81,0,0,0,0,2.81V74.28a2.81,2.81,0,0,0,2.81,2.81H108.24a2.82,2.82,0,0,0,2.81-2.81V2.81A2.82,2.82,0,0,0,108.24,0Zm-8,63.46a2.84,2.84,0,0,1-2.87,2.81H13.66a2.84,2.84,0,0,1-2.87-2.81V13.63a2.84,2.84,0,0,1,2.87-2.81H97.39a2.84,2.84,0,0,1,2.87,2.81Z"/></g></g></svg>