<svg xmlns="http://www.w3.org/2000/svg" viewBox="0 0 37.09 38.7"><defs><style>.cls-1{fill:#272525;}</style></defs><g id="Layer_2" data-name="Layer 2"><g id="Layer_1-2" data-name="Layer 1"><path class="cls-1" d="M4.64,19.5a.75.75,0,0,0-.26.05A6.08,6.08,0,0,0,1.29,24C.51,27.82.42,28.3.4,30.32a2.32,2.32,0,0,0-.4,1.3,2.24,2.24,0,0,0,2.22,2.26H6.65v2.21c0,1.47,1.54,2.61,3.51,2.61s3.5-1.14,3.5-2.61V33.88h9.56v2.21c0,1.47,1.54,2.61,3.5,2.61s3.51-1.14,3.51-2.61V33.88h4.64a2.24,2.24,0,0,0,2.22-2.26A2.3,2.3,0,0,0,36.37,30,26.75,26.75,0,0,0,35.48,24a6.11,6.11,0,0,0-3.08-4.49.75.75,0,0,0-.26-.05H30L29.79,18h1.07a.82.82,0,0,0,.81-.82.81.81,0,0,0-.81-.81H29.55l-1.34-9a.66.66,0,0,0-.65-.56h-2V.49A.49.49,0,0,0,25,0H16.61a.49.49,0,0,0-.49.49V3H12.64a.49.49,0,0,0-.49.49V6.81H9.21a.65.65,0,0,0-.64.56L7.2,16.56H5.67a.65.65,0,0,0-.65.65.66.66,0,0,0,.65.66H7L6.77,19.5ZM13.13,4H20.9V6.89H13.13ZM24.56,1V7.06H21.87V3.53A.49.49,0,0,0,21.39,3H17.1V1ZM27,8.12l1.8,12.12a.66.66,0,0,0,.65.56H32a5,5,0,0,1,2.22,3.51,30,30,0,0,1,.85,5.06H2.22a2,2,0,0,0-.49.06,28.07,28.07,0,0,1,.84-5.11A5.07,5.07,0,0,1,4.79,20.8H7.33A.65.65,0,0,0,8,20.24L9.77,8.12Zm7.87,24.46H2.22a1,1,0,0,1,0-1.92H34.87a1,1,0,0,1,0,1.92ZM26.72,37.4c-1.29,0-2.2-.69-2.2-1.31V33.88h4.4v2.21C28.92,36.71,28,37.4,26.72,37.4Zm-16.56,0c-1.3,0-2.2-.69-2.2-1.31V33.88h4.4v2.21C12.36,36.71,11.45,37.4,10.16,37.4Z"/><path class="cls-1" d="M10.35,19.91H26.58a.63.63,0,0,0,.48-.21.64.64,0,0,0,.17-.51l-1-8.87a.66.66,0,0,0-.65-.58H11.33a.66.66,0,0,0-.65.58l-1,8.87a.6.6,0,0,0,.16.51A.63.63,0,0,0,10.35,19.91Zm7.87-7H21v.68H16.41V13Zm.65-.65h-.32V11.24h.32ZM17.9,11V12.3H16.08a.33.33,0,0,0-.33.32V14a.32.32,0,0,0,.33.32H21.3a.32.32,0,0,0,.32-.32V12.62a.32.32,0,0,0-.32-.32H19.52V11H25l.84,7.57H11.08L11.92,11Z"/><path class="cls-1" d="M24.39,25a3.29,3.29,0,1,0,3.29-3.29A3.29,3.29,0,0,0,24.39,25Zm3.29-2a2,2,0,1,1-2,2A2,2,0,0,1,27.68,23Z"/><path class="cls-1" d="M9.83,21.67A3.29,3.29,0,1,0,13.12,25,3.29,3.29,0,0,0,9.83,21.67Zm0,5.27a2,2,0,1,1,2-2A2,2,0,0,1,9.83,26.94Z"/></g></g></svg>