<svg xmlns="http://www.w3.org/2000/svg" viewBox="0 0 16.97 39.82"><defs><style>.cls-1{fill:#272525;}</style></defs><g id="Layer_2" data-name="Layer 2"><g id="Layer_1-2" data-name="Layer 1"><path class="cls-1" d="M14.9,0h-.48a2.07,2.07,0,0,0-2.07,2.07V3.79H3.71A3.71,3.71,0,0,0,0,7.49V36.11a3.72,3.72,0,0,0,3.71,3.71h9.55A3.72,3.72,0,0,0,17,36.11V7.49a.13.13,0,0,0,0-.06V2.07A2.07,2.07,0,0,0,14.9,0Zm1,7.34V36.11a2.61,2.61,0,0,1-2.61,2.61H3.71a2.62,2.62,0,0,1-2.62-2.61V7.49A2.62,2.62,0,0,1,3.71,4.88h9.74V2.07a1,1,0,0,1,1-1h.48a1,1,0,0,1,1,1Z"/><path class="cls-1" d="M11.38,6.71H5.59A3.13,3.13,0,0,0,2.46,9.83V14A3.13,3.13,0,0,0,5.59,17.1h5.79A3.12,3.12,0,0,0,14.5,14V9.83A3.12,3.12,0,0,0,11.38,6.71ZM13.77,14a2.39,2.39,0,0,1-2.39,2.39H5.59A2.4,2.4,0,0,1,3.19,14V9.83a2.41,2.41,0,0,1,2.4-2.4h5.79a2.4,2.4,0,0,1,2.39,2.4Z"/><path class="cls-1" d="M11.38,21.49H5.59a3.13,3.13,0,0,0-3.13,3.12V33.5a3.13,3.13,0,0,0,3.13,3.12h5.79A3.12,3.12,0,0,0,14.5,33.5V24.61A3.12,3.12,0,0,0,11.38,21.49Zm2.39,12a2.39,2.39,0,0,1-2.39,2.39H5.59a2.4,2.4,0,0,1-2.4-2.39V24.61a2.4,2.4,0,0,1,2.4-2.39h5.79a2.39,2.39,0,0,1,2.39,2.39Z"/><path class="cls-1" d="M6.46,20.42a1,1,0,0,0,1-1v-.29a1,1,0,0,0-1-1H3.62a1,1,0,0,0-1,1v.29a1,1,0,0,0,1,1ZM3,19.44v-.29a.61.61,0,0,1,.61-.61H6.46a.61.61,0,0,1,.61.61v.29a.61.61,0,0,1-.61.61H3.62A.61.61,0,0,1,3,19.44Z"/><path class="cls-1" d="M13.34,20.42a1,1,0,0,0,1-1v-.29a1,1,0,0,0-1-1H10.51a1,1,0,0,0-1,1v.29a1,1,0,0,0,1,1Zm-3.44-1v-.29a.61.61,0,0,1,.61-.61h2.83a.61.61,0,0,1,.62.61v.29a.61.61,0,0,1-.62.61H10.51A.61.61,0,0,1,9.9,19.44Z"/></g></g></svg>