<svg xmlns="http://www.w3.org/2000/svg" viewBox="0 0 110 110"><defs><style>.cls-1{fill:#3a4145;}</style></defs><g id="Layer_2" data-name="Layer 2"><g id="Layer_4" data-name="Layer 4"><path class="cls-1" d="M100.94,0H9.06A9.08,9.08,0,0,0,0,9.06v91.88A9.09,9.09,0,0,0,9.06,110h91.88a9.09,9.09,0,0,0,9.06-9.06V9.06A9.08,9.08,0,0,0,100.94,0ZM75.26,10.19h27.12V12H75.26Zm0,3h27.12V15H75.26Zm0,3h27.12V18H75.26Zm0,3h27.12v1.81H75.26Zm0,3h27.12v1.81H75.26ZM17.13,10.13a6,6,0,1,1-6,6A6,6,0,0,1,17.13,10.13Zm-14.87,70V29.91H41.54a28.47,28.47,0,0,0,0,50.18Zm52.74-8A17.08,17.08,0,1,1,72.08,55,17.08,17.08,0,0,1,55,72.08Zm52.74,8H68.45a28.47,28.47,0,0,0,0-50.18h39.29Z"/></g></g></svg>