<svg xmlns="http://www.w3.org/2000/svg" viewBox="0 0 35.9 33.63"><defs><style>.cls-1{fill:#272525;}</style></defs><g id="Layer_2" data-name="Layer 2"><g id="Layer_1-2" data-name="Layer 1"><path class="cls-1" d="M35.9,27.63V.78A.78.78,0,0,0,35.12,0H.78A.78.78,0,0,0,0,.78V27.63a.78.78,0,0,0,.78.78H35.12A.78.78,0,0,0,35.9,27.63Zm-1.56-.78H1.56V1.56H34.34Z"/><path class="cls-1" d="M4.13,25.1H31.77a.86.86,0,0,0,.83-.89V4.12a.86.86,0,0,0-.83-.89H4.13a.86.86,0,0,0-.83.89V24.21A.86.86,0,0,0,4.13,25.1ZM5,5H31V23.32H5Z"/><path class="cls-1" d="M27,33.63a.78.78,0,0,0,.79-.78V30.12a.78.78,0,0,0-.79-.78h-18a.78.78,0,0,0-.78.78v2.73a.78.78,0,0,0,.78.78ZM9.71,30.9H26.18v1.17H9.71Z"/></g></g></svg>