<svg xmlns="http://www.w3.org/2000/svg" viewBox="0 0 106.85 110"><defs><style>.cls-1{fill:#3a4145;}</style></defs><g id="Layer_2" data-name="Layer 2"><g id="Layer_4" data-name="Layer 4"><path class="cls-1" d="M103.81,45.81H3a3.05,3.05,0,0,0-3,3V107a3.05,3.05,0,0,0,3,3H38.85a3.05,3.05,0,0,0,3-3V72.7c0-.61,1.37-1.1,3-1.1h17c1.67,0,3,.49,3,1.1V107A3.05,3.05,0,0,0,68,110h35.8a3.05,3.05,0,0,0,3-3V48.85A3.05,3.05,0,0,0,103.81,45.81Zm-82,40.74a3.05,3.05,0,0,1-3,3H14.44a3.05,3.05,0,0,1-3-3v-6.3a3.05,3.05,0,0,1,3-3H18.8a3.05,3.05,0,0,1,3,3Zm0-15.79a3.05,3.05,0,0,1-3,3H14.44a3.05,3.05,0,0,1-3-3V64.94a3.05,3.05,0,0,1,3-3H18.8a3.05,3.05,0,0,1,3,3ZM35.69,86.55a3.05,3.05,0,0,1-3,3H28.29a3.05,3.05,0,0,1-3.05-3v-6.3a3.06,3.06,0,0,1,3.05-3h4.35a3.06,3.06,0,0,1,3,3Zm0-15.79a3.05,3.05,0,0,1-3,3H28.29a3.05,3.05,0,0,1-3.05-3V64.94a3.05,3.05,0,0,1,3.05-3h4.35a3.05,3.05,0,0,1,3,3ZM81.61,86.55a3.05,3.05,0,0,1-3,3H74.21a3.05,3.05,0,0,1-3-3v-6.3a3.05,3.05,0,0,1,3-3h4.36a3.05,3.05,0,0,1,3,3Zm0-15.79a3.05,3.05,0,0,1-3,3H74.21a3.05,3.05,0,0,1-3-3V64.94a3.05,3.05,0,0,1,3-3h4.36a3.05,3.05,0,0,1,3,3ZM95.46,86.55a3.05,3.05,0,0,1-3,3H88.06a3.05,3.05,0,0,1-3-3v-6.3a3.06,3.06,0,0,1,3-3h4.35a3.06,3.06,0,0,1,3,3Zm0-15.79a3.05,3.05,0,0,1-3,3H88.06a3.05,3.05,0,0,1-3-3V64.94a3.05,3.05,0,0,1,3-3h4.35a3.05,3.05,0,0,1,3,3Z"/><path class="cls-1" d="M3,40.19H103.81c1.67,0,2-.84.63-1.87L55.84.77A4,4,0,0,0,53.43,0,4,4,0,0,0,51,.77L30.65,16.51A2.17,2.17,0,0,1,29.4,17c-.69,0-1.16-.61-1.16-1.71V3.16a3.05,3.05,0,0,0-3-3H16.32a3.05,3.05,0,0,0-3.05,3V26.89a7,7,0,0,1-2.41,4.9L2.41,38.32C1.09,39.35,1.37,40.19,3,40.19Z"/></g></g></svg>