<svg xmlns="http://www.w3.org/2000/svg" viewBox="0 0 28.74 31.67"><defs><style>.cls-1{fill:#272525;}</style></defs><g id="Layer_2" data-name="Layer 2"><g id="Layer_1-2" data-name="Layer 1"><path class="cls-1" d="M.55,0h0A.59.59,0,0,0,.16.16.57.57,0,0,0,0,.55V31.06a.55.55,0,0,0,.55.55l27.63.06h0a.56.56,0,0,0,.55-.56V.61a.55.55,0,0,0-.55-.55ZM27.63,30.56l-26.53,0V1.1l26.53.06Z"/><path class="cls-1" d="M8.92,11.2A2.7,2.7,0,0,0,11.6,8.52a2.68,2.68,0,0,0-.78-1.91,2.7,2.7,0,0,0-1.9-.79h0a2.69,2.69,0,1,0,0,5.38ZM7.33,8.51A1.59,1.59,0,0,1,8.92,6.93h0A1.58,1.58,0,0,1,10,9.63a1.53,1.53,0,0,1-1.11.46h0A1.53,1.53,0,0,1,7.8,9.63,1.58,1.58,0,0,1,7.33,8.51Z"/><path class="cls-1" d="M3.59,23.77h21.6a.55.55,0,0,0,.55-.55V3.55A.55.55,0,0,0,25.19,3H3.55A.55.55,0,0,0,3,3.55V23.08a.65.65,0,0,0,0,.19A.55.55,0,0,0,3.59,23.77Zm21.05-1.24v.14H4.14V19l3.42-4.23,4.16,3.53a.51.51,0,0,0,.41.13.52.52,0,0,0,.38-.21l5.66-7.42,6.47,6.27ZM4.11,4.1H24.64V15.56l-6.15-6a.52.52,0,0,0-.43-.15.55.55,0,0,0-.39.21L12,17.11,7.84,13.58a.53.53,0,0,0-.4-.12.51.51,0,0,0-.38.2L4.11,17.31Z"/></g></g></svg>