<svg xmlns="http://www.w3.org/2000/svg" viewBox="0 0 48.39 33.66"><defs><style>.cls-1{fill:#272525;}</style></defs><g id="Layer_2" data-name="Layer 2"><g id="Layer_1-2" data-name="Layer 1"><path class="cls-1" d="M37.14,3.23H11.05a.78.78,0,0,0-.78.78V21.59a.78.78,0,0,0,.78.78H37.14a.78.78,0,0,0,.78-.78V4A.78.78,0,0,0,37.14,3.23Zm-.78,17.58H11.84v-16H36.36Z"/><path class="cls-1" d="M48.37,30.63a.11.11,0,0,0,0-.05.19.19,0,0,0,0-.08s0,0,0-.06l0-.09,0,0-.09-.11,0,0-.08-.07,0,0-.06,0-5.9-2.92V.78A.78.78,0,0,0,41.27,0H6.93a.78.78,0,0,0-.78.78V27.15L.43,30.07l0,0,0,0-.07.06,0,0-.09.1v0a.24.24,0,0,0-.06.11s0,0,0,.05l0,.08a.13.13,0,0,1,0,.06s0,.06,0,.09v2.15a.78.78,0,0,0,.78.78H47.61a.78.78,0,0,0,.78-.78V30.76s0,0,0,0A.38.38,0,0,0,48.37,30.63ZM7.71,1.56H40.49V26.85H7.71ZM7.12,28.41h34L44.27,30H4ZM46.83,32.1H1.56v-.56H46.83Z"/><path class="cls-1" d="M24.41,22.81a1.68,1.68,0,1,0,1.68,1.68A1.69,1.69,0,0,0,24.41,22.81Zm0,2.42a.74.74,0,1,1,.74-.74A.74.74,0,0,1,24.41,25.23Z"/></g></g></svg>