<svg xmlns="http://www.w3.org/2000/svg" viewBox="0 0 83.74 110"><defs><style>.cls-1{fill:#3a4145;}</style></defs><g id="Layer_2" data-name="Layer 2"><g id="Layer_4" data-name="Layer 4"><path class="cls-1" d="M25.67,3.84V26.56c0,6.09-6.87,5.54-6.87.55V10.35C18.8,6.47,17.7,0,15.8,0s-3,6.47-3,10.35V27.11c0,5-6.87,5.54-6.87-.55V3.84C.48,6.06,0,21.94,0,32.9,0,44.37,6.4,48.73,12,48.73c0,0-4.9,33.56-4.9,45.2S11.17,110,15.8,110s8.71-4.43,8.71-16.07-4.9-45.2-4.9-45.2c5.59,0,12-4.36,12-15.83C31.6,21.94,31.12,6.06,25.67,3.84Z"/><path class="cls-1" d="M83.74,24.68C83.57,11.94,74.2,0,66.57,0s-17,11.94-17.17,24.68c-.27,20.44,13.36,18.94,13.36,24,0,0-4.9,33.56-4.9,45.2S62,110,66.57,110s8.72-4.43,8.72-16.07-4.91-45.2-4.91-45.2C70.38,43.62,84,45.12,83.74,24.68Z"/></g></g></svg>