<svg xmlns="http://www.w3.org/2000/svg" viewBox="0 0 63.21 110"><defs><style>.cls-1{fill:#3a4145;}</style></defs><g id="Layer_2" data-name="Layer 2"><g id="Layer_4" data-name="Layer 4"><path class="cls-1" d="M54.66,10.12h-36V5.54a5.54,5.54,0,0,0-11.08,0v4.64A8.57,8.57,0,0,0,0,18.67v82.78A8.58,8.58,0,0,0,8.55,110H54.66a8.57,8.57,0,0,0,8.55-8.55V18.67A8.57,8.57,0,0,0,54.66,10.12ZM23.59,81.34c0,.49-.72.89-1.6.89H8.86c-.88,0-1.6-.4-1.6-.89V73.46c0-.49.72-.89,1.6-.89H22c.88,0,1.6.4,1.6.89Zm12.59,0a.89.89,0,0,1-.89.89H27.93a.89.89,0,0,1-.9-.89V73.46a.89.89,0,0,1,.9-.89h7.36a.89.89,0,0,1,.89.89Zm19.77,0c0,.49-.73.89-1.63.89H41c-.89,0-1.63-.4-1.63-.89V73.46c0-.49.74-.89,1.63-.89H54.32c.9,0,1.63.4,1.63.89ZM56,64.2A4.79,4.79,0,0,1,51.18,69H12A4.79,4.79,0,0,1,7.26,64.2V22.34A4.79,4.79,0,0,1,12,17.56H51.18A4.79,4.79,0,0,1,56,22.34Z"/></g></g></svg>