<svg xmlns="http://www.w3.org/2000/svg" viewBox="0 0 29.5 29.49"><defs><style>.cls-1{fill:#272525;}</style></defs><g id="Layer_2" data-name="Layer 2"><g id="Layer_1-2" data-name="Layer 1"><path class="cls-1" d="M.3,11.84l0,.13a14.74,14.74,0,0,0,14,17.51h.5a14.83,14.83,0,0,0,10.44-4.32,14.75,14.75,0,0,0,0-20.86A14.6,14.6,0,0,0,14.24,0a14.94,14.94,0,0,0-2.43.28l-.07,0a2,2,0,0,0-1.33,1.14,2.62,2.62,0,0,0,.26,2.11l.05.09.06.09,0,.07a5.2,5.2,0,0,1-7.24,6.86l-1-.56v.25a2.08,2.08,0,0,0-.93.11A2.54,2.54,0,0,0,.3,11.84Zm1.23.45a1.16,1.16,0,0,1,.58-.59,1,1,0,0,1,.84.13l.14.07.29.14.81.41,0-.1a6.5,6.5,0,0,0,7.94-8.84l.06-.08-.26-.34L11.84,3l0,0a1.33,1.33,0,0,1-.19-1,.76.76,0,0,1,.49-.37,14,14,0,0,1,2.18-.25,13.42,13.42,0,0,1,13.9,13.43A13.44,13.44,0,1,1,1.53,12.29Z"/><path class="cls-1" d="M6.56,20.27a3.1,3.1,0,0,0-1.6-6H5a3.16,3.16,0,0,0-1.88,1.44,3.06,3.06,0,0,0-.3,2.35A3,3,0,0,0,4.22,20a3,3,0,0,0,2.34.31Zm-2-.88a2.45,2.45,0,0,1-.89-3.33,2.44,2.44,0,1,1,2.74,3.58A2.41,2.41,0,0,1,4.54,19.39Z"/><path class="cls-1" d="M9.24,25.14a3.09,3.09,0,0,0,4.78.71,3.08,3.08,0,0,0,0-4.52,3,3,0,0,0-1.3-.73,3.1,3.1,0,0,0-3.79,2.19h0A3,3,0,0,0,9.24,25.14ZM9.56,23a2.45,2.45,0,0,1,3-1.73,2.55,2.55,0,0,1,1,.57,2.43,2.43,0,0,1,.69,2.42,2.32,2.32,0,0,1-.69,1.15,2.43,2.43,0,0,1-2.3.58,2.44,2.44,0,0,1-1.72-3Z"/><path class="cls-1" d="M20.43,18.59a3.1,3.1,0,1,0,3.09,3.09,3.11,3.11,0,0,0-.9-2.19A3.08,3.08,0,0,0,20.43,18.59Zm1.73,4.82A2.44,2.44,0,0,1,18.71,20a2.43,2.43,0,0,1,3.45,0,2.45,2.45,0,0,1,0,3.45Z"/><path class="cls-1" d="M20.21,14.32a3.09,3.09,0,0,0,3,2.29,3.21,3.21,0,0,0,.8-.11,3.09,3.09,0,1,0-1.6-6h0A3.1,3.1,0,0,0,20.21,14.32Zm2.36-3.16a2.44,2.44,0,1,1-1.73,3A2.44,2.44,0,0,1,22.57,11.16Z"/><path class="cls-1" d="M16.25,10.09a2.82,2.82,0,0,0,.81.11,3.12,3.12,0,0,0,1.54-.41A3.06,3.06,0,0,0,20,7.91a3.09,3.09,0,1,0-6-1.6,3,3,0,0,0,.31,2.34A3,3,0,0,0,16.25,10.09ZM14.7,6.48a2.44,2.44,0,1,1,3.57,2.74A2.43,2.43,0,0,1,14.7,6.48Z"/></g></g></svg>