<svg xmlns="http://www.w3.org/2000/svg" viewBox="0 0 199.55 67.53"><defs><style>.cls-1{font-size:49.9px;font-family:Roboto-BlackItalic, Roboto;font-weight:800;}.cls-1,.cls-4{fill:#231f20;}.cls-1,.cls-2{font-style:italic;}.cls-2{font-size:14px;fill:#6d6e71;font-family:Roboto-LightItalic, Roboto;font-weight:300;letter-spacing:0.1em;}.cls-3{letter-spacing:0.07em;}.cls-5{fill:#fff;}</style></defs><g id="Layer_2" data-name="Layer 2"><g id="navbar"><text class="cls-1" transform="translate(67.82 42.69)">WLBB</text><text class="cls-2" transform="translate(72.65 63.73)">WU <tspan class="cls-3" x="28.81" y="0">L</tspan><tspan x="36.99" y="0">OBANG BOH</tspan></text><polygon class="cls-4" points="0 64.83 58.69 64.83 58.69 6.15 39 44.97 0 64.83"/><g id="IdsLP4"><path class="cls-4" d="M6.67,44.12a6.18,6.18,0,0,0,.94,4.6,9.94,9.94,0,0,0,4.05,3.35c.65.28,1.35.46,2,.68A.35.35,0,0,1,14,53a9.92,9.92,0,0,0,3.09,4.62,13.12,13.12,0,0,0,5.94,3,12.58,12.58,0,0,0,3.57.21c.78-.06,1.56-.13,2.34-.23a23.63,23.63,0,0,0,3.65-.75A17.76,17.76,0,0,0,36.91,58c.58-.35,1.12-.76,1.67-1.16a.63.63,0,0,1,.62,0,8.48,8.48,0,0,0,2.69.4,10.62,10.62,0,0,0,6-1.88,9.25,9.25,0,0,0,2.58-2.67,17.84,17.84,0,0,0,1-1.63,12.15,12.15,0,0,0,1.11-3.39,14.56,14.56,0,0,0,.22-2.8,14.15,14.15,0,0,0-1.16-5.43,12.52,12.52,0,0,0-2.86-4.17,10.7,10.7,0,0,0-3.77-2.37,11.88,11.88,0,0,0-1.46-.33,1,1,0,0,1-.71-.44A33.29,33.29,0,0,0,39,27.46a17.93,17.93,0,0,1-2.27-2.93,5.47,5.47,0,0,1-.73-3,13.17,13.17,0,0,1,.7-3.52c.4-1.28.83-2.56,1.2-3.85a9,9,0,0,0,.38-2.78A5.21,5.21,0,0,0,34,6.34,8.35,8.35,0,0,0,27,8a12.93,12.93,0,0,0-2.42,2.37,7.53,7.53,0,0,0-1.63,4,19.32,19.32,0,0,0-.08,2.15,7.28,7.28,0,0,0,1,3.47c.63,1.08,1.35,2.11,2,3.18.5.84.94,1.71,1.4,2.57a1,1,0,0,1,.1.24c0,.16,0,.26-.19.27h-1c-.58,0-1.15-.08-1.72-.09s-1.43,0-2.14,0c-1.18.09-2.37.19-3.54.35s-2.29.33-3.42.57a19.9,19.9,0,0,0-5.86,2.21,7.57,7.57,0,0,0-2.75,2.37A4.7,4.7,0,0,0,6,34.81a7.55,7.55,0,0,0,2.61,4.87l.1.09s0,0,0,0A7.39,7.39,0,0,0,6.67,44.12Z"/><path class="cls-4" d="M8.72,39.77l-.1-.09A7.55,7.55,0,0,1,6,34.81a4.7,4.7,0,0,1,.7-3.16,7.57,7.57,0,0,1,2.75-2.37,19.9,19.9,0,0,1,5.86-2.21c1.13-.24,2.27-.42,3.42-.57s2.36-.26,3.54-.35c.71,0,1.43,0,2.14,0s1.14.07,1.72.09h1c.18,0,.23-.11.19-.27a1,1,0,0,0-.1-.24c-.46-.86-.9-1.73-1.4-2.57-.64-1.07-1.36-2.1-2-3.18a7.28,7.28,0,0,1-1-3.47,19.32,19.32,0,0,1,.08-2.15,7.53,7.53,0,0,1,1.63-4A12.93,12.93,0,0,1,27,8a8.35,8.35,0,0,1,7-1.61,5.21,5.21,0,0,1,4.3,5.05,9,9,0,0,1-.38,2.78c-.37,1.29-.8,2.57-1.2,3.85a13.17,13.17,0,0,0-.7,3.52,5.47,5.47,0,0,0,.73,3A17.93,17.93,0,0,0,39,27.46a33.29,33.29,0,0,1,3.77,4.68,1,1,0,0,0,.71.44,11.88,11.88,0,0,1,1.46.33,10.7,10.7,0,0,1,3.77,2.37,12.52,12.52,0,0,1,2.86,4.17,14.15,14.15,0,0,1,1.16,5.43,14.56,14.56,0,0,1-.22,2.8,12.15,12.15,0,0,1-1.11,3.39,17.84,17.84,0,0,1-1,1.63,9.25,9.25,0,0,1-2.58,2.67,10.62,10.62,0,0,1-6,1.88,8.48,8.48,0,0,1-2.69-.4.63.63,0,0,0-.62,0c-.55.4-1.09.81-1.67,1.16a17.76,17.76,0,0,1-4.34,1.8,23.63,23.63,0,0,1-3.65.75c-.78.1-1.56.17-2.34.23A12.58,12.58,0,0,1,23,60.61a13.12,13.12,0,0,1-5.94-3A9.92,9.92,0,0,1,14,53a.35.35,0,0,0-.29-.26c-.68-.22-1.38-.4-2-.68a9.94,9.94,0,0,1-4-3.35,6.18,6.18,0,0,1-.94-4.6,7.39,7.39,0,0,1,2.07-4.3S8.73,39.78,8.72,39.77ZM27.93,28.25c0-.21-.14-.25-.3-.26-.56,0-1.12-.07-1.69-.09-1.6,0-3.2-.08-4.81-.06a28.85,28.85,0,0,0-6.13.8,16,16,0,0,0-4.44,1.66A6.72,6.72,0,0,0,8.47,32a3.9,3.9,0,0,0-.21,4.68,7.67,7.67,0,0,0,1.61,1.8,9.74,9.74,0,0,0,2.68,1.56,13.94,13.94,0,0,0,4.27,1,16.51,16.51,0,0,0,6.68-1,15.93,15.93,0,0,0,1.91-.78A8.85,8.85,0,0,0,29,36.35a3.91,3.91,0,0,0,.6-3.33A3,3,0,0,0,28,31.17a7.5,7.5,0,0,0-2.49-.72,18,18,0,0,0-3.88-.14,18.83,18.83,0,0,0-3.93.76c-.74.23-1.46.5-2.19.75l-.2.05c0-.17.07-.24.19-.3a19.71,19.71,0,0,1,3.7-1.63,17,17,0,0,1,5.11-.68,9.85,9.85,0,0,1,4.51,1.13,4.45,4.45,0,0,1,2,2,3.73,3.73,0,0,1,0,3.15,3.81,3.81,0,0,1-.44.88,2.93,2.93,0,0,0-.48,2.18,11.57,11.57,0,0,0,1.95,5.25,17.54,17.54,0,0,0,2,2.17,1,1,0,0,1,.15.31c-.12,0-.26,0-.35,0-.46-.29-.92-.6-1.36-.93s-.63-.58-1-.88c-.07.21-.11.42-.18.61-.23.56-.46,1.12-.7,1.67-.11.27-.09.32.2.34.94.07,1.89.11,2.83.21a4.2,4.2,0,0,1,3.32,1.87,3.1,3.1,0,0,1,.48,2,6.87,6.87,0,0,1-2.3,4.43,14.35,14.35,0,0,1-3.76,2.55c-.74.35-1.49.66-2.26,1l.71-.09a25.69,25.69,0,0,0,4.07-.8,12.28,12.28,0,0,0,4.86-2.88c.55-.52,1.1-1,1.61-1.61a10.83,10.83,0,0,0,2.71-5.41c.06-.32.13-.64.22-1a.84.84,0,0,1,.19-.24c0,.1.15.2.14.29a11,11,0,0,1-1.77,6.08c-.36.53-.78,1-1.17,1.55l-.37.48c.36.06.67.14,1,.16a8.48,8.48,0,0,0,5.77-1.58,9.41,9.41,0,0,0,2.93-3.57,13.33,13.33,0,0,0,1.29-6.72A12.36,12.36,0,0,0,49.39,38a8.17,8.17,0,0,0-5.48-4h-.12c.11.28.21.55.32.8a10,10,0,0,1,.71,5.82,8.83,8.83,0,0,1-.73,2.61,13.61,13.61,0,0,1-2.23,3.27s-.06.08-.1.09a1.23,1.23,0,0,1-.2,0c0-.07,0-.15,0-.2l.37-.54a11,11,0,0,0,1.36-3.8A14.27,14.27,0,0,0,43.56,39a11.77,11.77,0,0,0-1.8-5.93,25.56,25.56,0,0,0-3.11-3.85c-.92-1-1.83-2-2.7-3a5.71,5.71,0,0,1-1.33-2.79,6.21,6.21,0,0,1,.1-2.54c.33-1.35.71-2.7,1.09-4a25.84,25.84,0,0,0,.81-3.48,6,6,0,0,0,0-2,4,4,0,0,0-3.45-3.6,6.17,6.17,0,0,0-3.12.45,10,10,0,0,0-4.8,4,7.17,7.17,0,0,0-1.22,3.86,6.33,6.33,0,0,0,1.08,3.58c.77,1.17,1.57,2.32,2.34,3.49a9.41,9.41,0,0,1,1.4,3.25,4,4,0,0,1-.32,2.8,4.82,4.82,0,0,1-.41.51C28.07,29.19,28,28.72,27.93,28.25ZM25.22,50a9,9,0,0,0,3.41-2.87,5.81,5.81,0,0,0,1.09-3,2.8,2.8,0,0,0-1.09-2.52,4,4,0,0,0-3.14-.88,1.33,1.33,0,0,0-.45.15,13.59,13.59,0,0,1-4.22,1.29,17.91,17.91,0,0,1-3.35.22A17.12,17.12,0,0,1,11,41a.71.71,0,0,0-.88.13,5.11,5.11,0,0,0-1.85,4.52,4.88,4.88,0,0,0,.79,2,7.55,7.55,0,0,0,3.28,2.82,13.58,13.58,0,0,0,5.75,1.17A16,16,0,0,0,25.22,50Zm-8.48,4.91a8.7,8.7,0,0,0,4.44,3.74,7.57,7.57,0,0,0,3.34.41,16.56,16.56,0,0,0,9.24-3.83,6.89,6.89,0,0,0,2.3-3.29,2.45,2.45,0,0,0-.24-2.18,2.93,2.93,0,0,0-1.3-1.06,6.87,6.87,0,0,0-3.72-.48c-.3,0-.6.12-.9.17a3.84,3.84,0,0,0-1.75.94,14.65,14.65,0,0,1-2.63,1.78c-.64.34-1.3.62-2,.9a14.52,14.52,0,0,1-4.49,1c-1,.07-1.95,0-2.93,0H16A5.58,5.58,0,0,0,16.74,54.87Z"/><path class="cls-5" d="M28.15,29.72c-.08-.53-.16-1-.22-1.47,0-.21-.14-.25-.3-.26-.56,0-1.12-.07-1.69-.09-1.6,0-3.2-.08-4.81-.06a28.85,28.85,0,0,0-6.13.8,16,16,0,0,0-4.44,1.66A6.72,6.72,0,0,0,8.47,32a3.9,3.9,0,0,0-.21,4.68,7.67,7.67,0,0,0,1.61,1.8,9.74,9.74,0,0,0,2.68,1.56,13.94,13.94,0,0,0,4.27,1,16.51,16.51,0,0,0,6.68-1,15.93,15.93,0,0,0,1.91-.78A8.85,8.85,0,0,0,29,36.35a3.91,3.91,0,0,0,.6-3.33A3,3,0,0,0,28,31.17a7.5,7.5,0,0,0-2.49-.72,18,18,0,0,0-3.88-.14,18.83,18.83,0,0,0-3.93.76c-.74.23-1.46.5-2.19.75l-.2.05c0-.17.07-.24.19-.3a19.71,19.71,0,0,1,3.7-1.63,17,17,0,0,1,5.11-.68,9.85,9.85,0,0,1,4.51,1.13,4.45,4.45,0,0,1,2,2,3.73,3.73,0,0,1,0,3.15,3.81,3.81,0,0,1-.44.88,2.93,2.93,0,0,0-.48,2.18,11.57,11.57,0,0,0,1.95,5.25,17.54,17.54,0,0,0,2,2.17,1,1,0,0,1,.15.31c-.12,0-.26,0-.35,0-.46-.29-.92-.6-1.36-.93s-.63-.58-1-.88c-.07.21-.11.42-.18.61-.23.56-.46,1.12-.7,1.67-.11.27-.09.32.2.34.94.07,1.89.11,2.83.21a4.2,4.2,0,0,1,3.32,1.87,3.1,3.1,0,0,1,.48,2,6.87,6.87,0,0,1-2.3,4.43,14.35,14.35,0,0,1-3.76,2.55c-.74.35-1.49.66-2.26,1l.71-.09a25.69,25.69,0,0,0,4.07-.8,12.28,12.28,0,0,0,4.86-2.88c.55-.52,1.1-1,1.61-1.61a10.83,10.83,0,0,0,2.71-5.41c.06-.32.13-.64.22-1a.84.84,0,0,1,.19-.24c0,.1.15.2.14.29a11,11,0,0,1-1.77,6.08c-.36.53-.78,1-1.17,1.55l-.37.48c.36.06.67.14,1,.16a8.48,8.48,0,0,0,5.77-1.58,9.41,9.41,0,0,0,2.93-3.57,13.33,13.33,0,0,0,1.29-6.72A12.36,12.36,0,0,0,49.39,38a8.17,8.17,0,0,0-5.48-4h-.12c.11.28.21.55.32.8a10,10,0,0,1,.71,5.82,8.83,8.83,0,0,1-.73,2.61,13.61,13.61,0,0,1-2.23,3.27s-.06.08-.1.09a1.23,1.23,0,0,1-.2,0c0-.07,0-.15,0-.2l.37-.54a11,11,0,0,0,1.36-3.8A14.27,14.27,0,0,0,43.56,39a11.77,11.77,0,0,0-1.8-5.93,25.56,25.56,0,0,0-3.11-3.85c-.92-1-1.83-2-2.7-3a5.71,5.71,0,0,1-1.33-2.79,6.21,6.21,0,0,1,.1-2.54c.33-1.35.71-2.7,1.09-4a25.84,25.84,0,0,0,.81-3.48,6,6,0,0,0,0-2,4,4,0,0,0-3.45-3.6,6.17,6.17,0,0,0-3.12.45,10,10,0,0,0-4.8,4,7.17,7.17,0,0,0-1.22,3.86,6.33,6.33,0,0,0,1.08,3.58c.77,1.17,1.57,2.32,2.34,3.49a9.41,9.41,0,0,1,1.4,3.25,4,4,0,0,1-.32,2.8A4.82,4.82,0,0,1,28.15,29.72Z"/><path class="cls-5" d="M18.05,51.65A16,16,0,0,0,25.22,50a9,9,0,0,0,3.41-2.87,5.81,5.81,0,0,0,1.09-3,2.8,2.8,0,0,0-1.09-2.52,4,4,0,0,0-3.14-.88,1.33,1.33,0,0,0-.45.15,13.59,13.59,0,0,1-4.22,1.29,17.91,17.91,0,0,1-3.35.22A17.12,17.12,0,0,1,11,41a.71.71,0,0,0-.88.13,5.11,5.11,0,0,0-1.85,4.52,4.88,4.88,0,0,0,.79,2,7.55,7.55,0,0,0,3.28,2.82A13.58,13.58,0,0,0,18.05,51.65Z"/><path class="cls-5" d="M16,53.05a5.58,5.58,0,0,0,.74,1.82,8.7,8.7,0,0,0,4.44,3.74,7.57,7.57,0,0,0,3.34.41,16.56,16.56,0,0,0,9.24-3.83,6.89,6.89,0,0,0,2.3-3.29,2.45,2.45,0,0,0-.24-2.18,2.93,2.93,0,0,0-1.3-1.06,6.87,6.87,0,0,0-3.72-.48c-.3,0-.6.12-.9.17a3.84,3.84,0,0,0-1.75.94,14.65,14.65,0,0,1-2.63,1.78c-.64.34-1.3.62-2,.9a14.52,14.52,0,0,1-4.49,1c-1,.07-1.95,0-2.93,0Z"/></g><polygon class="cls-4" points="3.3 4.33 3.06 9.25 15.89 16.3 3.3 4.33"/><polygon class="cls-4" points="2.71 16.45 4.19 20.54 15.7 20.22 2.71 16.45"/><polygon class="cls-4" points="16.79 4.05 15.08 7.68 19.33 14.79 16.79 4.05"/><polygon class="cls-4" points="40.65 3.39 40.3 10.51 42.59 5.79 40.65 3.39"/><polygon class="cls-4" points="49.95 1.37 50.59 5.12 43.56 11.38 49.95 1.37"/><polygon class="cls-4" points="51.6 11.06 51.15 14.22 43.63 14.8 51.6 11.06"/></g></g></svg>